<?xml version="1.0" standalone="no"?>
<!DOCTYPE svg PUBLIC "-//W3C//DTD SVG 20010904//EN"
 "http://www.w3.org/TR/2001/REC-SVG-20010904/DTD/svg10.dtd">
<svg version="1.0" xmlns="http://www.w3.org/2000/svg"
 width="512.000000pt" height="512.000000pt" viewBox="0 0 512.000000 512.000000"
 preserveAspectRatio="xMidYMid meet">
<metadata>
Created by potrace 1.14, written by Peter Selinger 2001-2017
</metadata>
<g transform="translate(0.000000,512.000000) scale(0.100000,-0.100000)"
fill="#000000" stroke="none">
<path d="M2295 5099 c-490 -53 -975 -257 -1358 -572 -488 -401 -804 -965 -904
-1607 -25 -162 -25 -558 0 -720 69 -445 229 -825 501 -1190 91 -122 353 -384
479 -478 394 -296 839 -469 1321 -513 157 -14 447 -7 596 16 448 68 863 248
1223 531 93 74 327 308 401 401 236 301 399 634 486 998 53 219 65 326 65 595
0 269 -12 376 -65 595 -87 365 -252 702 -487 998 -75 95 -248 272 -348 357
-355 301 -801 502 -1275 575 -127 20 -505 28 -635 14z m27 -1889 c98 -415 178
-756 178 -757 0 -2 20 -3 44 -3 l44 0 32 133 c17 72 97 413 178 757 l147 625
258 3 c202 2 257 0 257 -10 -1 -7 -155 -634 -343 -1393 l-343 -1380 -258 -3
c-242 -2 -257 -1 -252 15 19 67 206 791 206 801 0 8 -50 12 -182 14 l-183 3
-237 960 c-130 528 -237 968 -237 978 -1 16 16 17 256 15 l256 -3 179 -755z"/>
</g>
</svg>
